<svg xmlns="http://www.w3.org/2000/svg" viewBox="0 0 512 512">
  <defs>
    <linearGradient id="bg" x1="0%" y1="0%" x2="100%" y2="100%">
      <stop offset="0%" style="stop-color:#0ea5e9"/>
      <stop offset="100%" style="stop-color:#06b6d4"/>
    </linearGradient>
  </defs>
  <rect width="512" height="512" rx="128" fill="url(#bg)"/>
  <g transform="translate(256, 256)">
    <!-- Sun -->
    <circle cx="-40" cy="-40" r="60" fill="#fbbf24"/>
    <g stroke="#fbbf24" stroke-width="8" stroke-linecap="round">
      <line x1="-40" y1="-120" x2="-40" y2="-100"/>
      <line x1="-40" y1="20" x2="-40" y2="40"/>
      <line x1="-120" y1="-40" x2="-100" y2="-40"/>
      <line x1="20" y1="-40" x2="40" y2="-40"/>
      <line x1="-96" y1="-96" x2="-82" y2="-82"/>
      <line x1="2" y1="2" x2="16" y2="16"/>
      <line x1="-96" y1="16" x2="-82" y2="2"/>
      <line x1="2" y1="-82" x2="16" y2="-96"/>
    </g>
    <!-- Cloud -->
    <path d="M-20 20 Q-20 0 0 0 Q10 -20 40 -20 Q70 -20 80 0 Q100 0 100 20 Q100 50 70 50 H-20 Q-40 50 -40 35 Q-40 20 -20 20" fill="white" opacity="0.9"/>
  </g>
</svg>
